<?xml version="1.0" encoding="UTF-8" standalone="no"?>
<!-- Created with Inkscape (http://www.inkscape.org/) -->

<svg
   width="136.36617mm"
   height="48.551552mm"
   viewBox="0 0 136.36617 48.551552"
   version="1.1"
   id="svg5"
   xmlns:xlink="http://www.w3.org/1999/xlink"
   xmlns="http://www.w3.org/2000/svg"
   xmlns:svg="http://www.w3.org/2000/svg">
  <defs
     id="defs2">
    <linearGradient
       id="linearGradient988">
      <stop
         style="stop-color:#edaf32;stop-opacity:1;"
         offset="0"
         id="stop984" />
      <stop
         style="stop-color:#d15722;stop-opacity:1;"
         offset="0.20999999"
         id="stop994" />
      <stop
         style="stop-color:#c22f06;stop-opacity:1;"
         offset="0.37"
         id="stop992" />
      <stop
         style="stop-color:#7d1b0c;stop-opacity:1;"
         offset="0.60000002"
         id="stop996" />
      <stop
         style="stop-color:#521316;stop-opacity:1;"
         offset="0.81999999"
         id="stop998" />
      <stop
         style="stop-color:#331911;stop-opacity:1;"
         offset="1"
         id="stop986" />
    </linearGradient>
    <rect
       x="197.17773"
       y="390.19492"
       width="208.69495"
       height="77.727226"
       id="rect236" />
    <rect
       x="197.17773"
       y="390.19492"
       width="208.69495"
       height="77.727226"
       id="rect402" />
    <linearGradient
       xlink:href="#linearGradient988"
       id="linearGradient990"
       x1="199.6524"
       y1="428.09128"
       x2="253.75371"
       y2="428.09128"
       gradientUnits="userSpaceOnUse" />
    <linearGradient
       xlink:href="#linearGradient988"
       id="linearGradient2464"
       gradientUnits="userSpaceOnUse"
       x1="199.6524"
       y1="428.09128"
       x2="253.75371"
       y2="428.09128" />
    <linearGradient
       xlink:href="#linearGradient988"
       id="linearGradient591"
       gradientUnits="userSpaceOnUse"
       x1="199.6524"
       y1="428.09128"
       x2="253.75371"
       y2="428.09128"
       gradientTransform="translate(69.860609,0.60548252)" />
    <linearGradient
       xlink:href="#linearGradient988"
       id="linearGradient219"
       gradientUnits="userSpaceOnUse"
       x1="199.6524"
       y1="428.09128"
       x2="253.75371"
       y2="428.09128" />
  </defs>
  <g
     id="layer1"
     transform="translate(-34.246507,-95.87737)">
    <g
       aria-label="500"
       transform="matrix(0.72527025,0,0,0.72527025,-109.07009,-188.70459)"
       id="text234"
       style="font-size:85.3333px;line-height:0;font-family:Montserrat;-inkscape-font-specification:'Montserrat, @wght=900';font-variation-settings:'wght' 900;letter-spacing:10px;word-spacing:0px;white-space:pre;shape-inside:url(#rect236);fill:#000000;fill-opacity:1">
      <path
         d="m 221.15639,459.32326 q -6.144,0 -12.45866,-1.36533 -6.31466,-1.36533 -11.09333,-4.01066 l 6.82666,-14.848 q 3.84,2.21867 8.02133,3.328 4.18134,1.024 7.936,1.024 3.41333,0 5.632,-1.19467 2.21866,-1.19466 2.21866,-3.49866 0,-1.28 -0.76799,-2.21867 -0.768,-1.024 -2.73067,-1.536 -1.87733,-0.512 -5.54666,-0.512 h -17.32266 l 2.98666,-36.26665 h 39.67998 v 15.18933 h -32.59732 l 10.15467,-8.61866 -1.792,23.12532 -10.15466,-8.61866 h 13.90932 q 8.87467,0 14.16533,2.56 5.376,2.56 7.76533,6.91199 2.47467,4.26667 2.47467,9.55733 0,5.29067 -2.90134,10.15467 -2.81599,4.77866 -8.87466,7.85066 -5.97333,2.98666 -15.53066,2.98666 z"
         style="line-height:1;fill:#000000;fill-opacity:1"
         id="path408" />
      <path
         d="m 289.52432,459.32326 q -7.936,0 -14.07999,-3.66933 -6.05867,-3.66933 -9.55733,-10.66666 -3.41333,-6.99733 -3.41333,-16.89599 0,-9.89867 3.41333,-16.896 3.49866,-6.99733 9.55733,-10.66666 6.14399,-3.66933 14.07999,-3.66933 7.936,0 13.99466,3.66933 6.144,3.66933 9.55733,10.66666 3.49867,6.99733 3.49867,16.896 0,9.89866 -3.49867,16.89599 -3.41333,6.99733 -9.55733,10.66666 -6.05866,3.66933 -13.99466,3.66933 z m 0,-16.12799 q 1.96267,0 3.49867,-1.36533 1.536,-1.36533 2.38933,-4.69333 0.93867,-3.328 0.93867,-9.04533 0,-5.80267 -0.93867,-9.04533 -0.85333,-3.328 -2.38933,-4.69333 -1.536,-1.36534 -3.49867,-1.36534 -1.96266,0 -3.49866,1.36534 -1.536,1.36533 -2.47467,4.69333 -0.85333,3.24266 -0.85333,9.04533 0,5.71733 0.85333,9.04533 0.93867,3.328 2.47467,4.69333 1.536,1.36533 3.49866,1.36533 z"
         style="line-height:1;fill:#000000;fill-opacity:1"
         id="path410" />
      <path
         d="m 358.57491,459.32326 q -7.93599,0 -14.07999,-3.66933 -6.05867,-3.66933 -9.55733,-10.66666 -3.41333,-6.99733 -3.41333,-16.89599 0,-9.89867 3.41333,-16.896 3.49866,-6.99733 9.55733,-10.66666 6.144,-3.66933 14.07999,-3.66933 7.936,0 13.99466,3.66933 6.144,3.66933 9.55733,10.66666 3.49867,6.99733 3.49867,16.896 0,9.89866 -3.49867,16.89599 -3.41333,6.99733 -9.55733,10.66666 -6.05866,3.66933 -13.99466,3.66933 z m 0,-16.12799 q 1.96267,0 3.49867,-1.36533 1.536,-1.36533 2.38933,-4.69333 0.93867,-3.328 0.93867,-9.04533 0,-5.80267 -0.93867,-9.04533 -0.85333,-3.328 -2.38933,-4.69333 -1.536,-1.36534 -3.49867,-1.36534 -1.96266,0 -3.49866,1.36534 -1.536,1.36533 -2.47467,4.69333 -0.85333,3.24266 -0.85333,9.04533 0,5.71733 0.85333,9.04533 0.93867,3.328 2.47467,4.69333 1.536,1.36533 3.49866,1.36533 z"
         style="line-height:1;fill:#000000;fill-opacity:1"
         id="path412" />
    </g>
    <g
       aria-label="0"
       transform="matrix(0.72527025,0,0,0.72527025,-66.897106,-191.95287)"
       id="text400"
       style="font-size:85.3333px;line-height:0;font-family:Montserrat;-inkscape-font-specification:'Montserrat, @wght=900';font-variation-settings:'wght' 900;letter-spacing:10px;word-spacing:0px;white-space:pre;shape-inside:url(#rect402);fill:url(#linearGradient219);fill-opacity:1;stroke:none;stroke-opacity:1">
      <path
         d="m 226.70306,459.32326 q -7.936,0 -14.08,-3.66933 -6.05866,-3.66933 -9.55733,-10.66666 -3.41333,-6.99733 -3.41333,-16.89599 0,-9.89867 3.41333,-16.896 3.49867,-6.99733 9.55733,-10.66666 6.144,-3.66933 14.08,-3.66933 7.93599,0 13.99466,3.66933 6.14399,3.66933 9.55733,10.66666 3.49866,6.99733 3.49866,16.896 0,9.89866 -3.49866,16.89599 -3.41334,6.99733 -9.55733,10.66666 -6.05867,3.66933 -13.99466,3.66933 z m 0,-16.12799 q 1.96266,0 3.49866,-1.36533 1.536,-1.36533 2.38933,-4.69333 0.93867,-3.328 0.93867,-9.04533 0,-5.80267 -0.93867,-9.04533 -0.85333,-3.328 -2.38933,-4.69333 -1.536,-1.36534 -3.49866,-1.36534 -1.96267,0 -3.49867,1.36534 -1.536,1.36533 -2.47467,4.69333 -0.85333,3.24266 -0.85333,9.04533 0,5.71733 0.85333,9.04533 0.93867,3.328 2.47467,4.69333 1.536,1.36533 3.49867,1.36533 z"
         style="line-height:1;fill:url(#linearGradient2464);fill-opacity:1;stroke:none;stroke-opacity:1"
         id="path404" />
    </g>
    <g
       aria-label="0"
       transform="matrix(0.72527025,0,0,0.72527025,-66.897106,-191.95287)"
       id="g587"
       style="font-size:85.3333px;line-height:0;font-family:Montserrat;-inkscape-font-specification:'Montserrat, @wght=900';font-variation-settings:'wght' 900;letter-spacing:10px;word-spacing:0px;white-space:pre;shape-inside:url(#rect402);fill:url(#linearGradient990);fill-opacity:1;stroke:none;stroke-opacity:1">
      <path
         d="m 296.56366,459.92874 q -7.936,0 -14.08,-3.66933 -6.05866,-3.66933 -9.55733,-10.66666 -3.41333,-6.99733 -3.41333,-16.89599 0,-9.89867 3.41333,-16.896 3.49867,-6.99733 9.55733,-10.66666 6.144,-3.66933 14.08,-3.66933 7.93599,0 13.99466,3.66933 6.14399,3.66933 9.55733,10.66666 3.49866,6.99733 3.49866,16.896 0,9.89866 -3.49866,16.89599 -3.41334,6.99733 -9.55733,10.66666 -6.05867,3.66933 -13.99466,3.66933 z m 0,-16.12799 q 1.96266,0 3.49866,-1.36533 1.536,-1.36533 2.38933,-4.69333 0.93867,-3.328 0.93867,-9.04533 0,-5.80267 -0.93867,-9.04533 -0.85333,-3.328 -2.38933,-4.69333 -1.536,-1.36534 -3.49866,-1.36534 -1.96267,0 -3.49867,1.36534 -1.536,1.36533 -2.47467,4.69333 -0.85333,3.24266 -0.85333,9.04533 0,5.71733 0.85333,9.04533 0.93867,3.328 2.47467,4.69333 1.536,1.36533 3.49867,1.36533 z"
         style="line-height:1;fill:url(#linearGradient591);fill-opacity:1;stroke:none;stroke-opacity:1"
         id="path589" />
    </g>
  </g>
</svg>
